<!-- Created with Inkscape (http://www.inkscape.org/) -->
<svg xmlns:rdf="http://www.w3.org/1999/02/22-rdf-syntax-ns#" xmlns="http://www.w3.org/2000/svg" version="1.1" xmlns:cc="http://creativecommons.org/ns#" xmlns:dc="http://purl.org/dc/elements/1.1/" viewBox="0 0 78.886 76.916">
<metadata>
<rdf:RDF>
<cc:Work rdf:about="">
<dc:format>image/svg+xml</dc:format>
<dc:type rdf:resource="http://purl.org/dc/dcmitype/StillImage"/>
<dc:title/>
</cc:Work>
</rdf:RDF>
</metadata>
<g transform="translate(-297.69985,-311.04687)">
<g fill="#ababab" transform="matrix(2.1067014,0,0,2.1067014,2228.2538,3005.5737)">
<g fill="#ababab" transform="matrix(0.18200039,0,0,0.18200039,-973.85062,-770.4349)">
<path style="enable-background:accumulate;color:#000000;" d="m334.73-2673c-2.1863-37.962-33.54-83.159-10.714-113.57,7.9308-10.567,25.718-7.4256,38.93-7.4489,13.42-0.024,30.569-2.5274,39.571,7.4266,12.975,14.348,3.6986,38.52,4.9342,57.825,1.1744,18.35-9.0012,40.651,2.355,55.114,8.3354,10.615,25.393,11.114,38.889,11.273,21.29,0.2509,43.27-26.905,61.75-16.332,11.564,6.616,11.47,25.185,10.774,38.49-0.64464,12.307-3.7905,26.948-13.631,34.367-25.027,18.87-62.238,10.093-93.571,9.2857-26.264-0.6765-60.591,7.9292-77.929-11.811-14.217-16.187-0.11809-43.109-1.3568-64.618z" fill="#ababab"/>
</g>
</g>
</g>
</svg>
