<!-- Created with Inkscape (http://www.inkscape.org/) -->
<svg xmlns:rdf="http://www.w3.org/1999/02/22-rdf-syntax-ns#" xmlns="http://www.w3.org/2000/svg" height="30.838" width="16.061" version="1.1" xmlns:cc="http://creativecommons.org/ns#" xmlns:dc="http://purl.org/dc/elements/1.1/" viewBox="0 0 16.060528 30.837868">
<defs>
<linearGradient id="SVGID_8817_" y2="631.98" gradientUnits="userSpaceOnUse" y1="606.48" gradientTransform="matrix(-1,0,0,1,1453.0898,0)" x2="431.76" x1="450.36">
<stop stop-color="#E5E2DF" offset="0"/>
<stop stop-color="#DED9D6" offset="0"/>
<stop stop-color="#CFCCC9" offset="0.0381"/>
<stop stop-color="#A8A8A8" offset="0.1113"/>
<stop stop-color="#6A7072" offset="0.2112"/>
<stop stop-color="#465053" offset="0.264"/>
<stop stop-color="#878D8F" offset="0.3722"/>
<stop stop-color="#B7BABB" offset="0.4638"/>
<stop stop-color="#D5D6D6" offset="0.5335"/>
<stop stop-color="#E0E0E0" offset="0.573"/>
<stop stop-color="#D6D7D8" offset="0.632"/>
<stop stop-color="#BCBFC2" offset="0.7314"/>
<stop stop-color="#92989E" offset="0.8582"/>
<stop stop-color="#8B9298" offset="0.8764"/>
<stop stop-color="#D1D3D4" offset="1"/>
<stop stop-color="#A7A9AC" offset="1"/>
</linearGradient>
<linearGradient id="SVGID_8818_" y2="388.8" gradientUnits="userSpaceOnUse" y1="393.56" gradientTransform="matrix(0.4335,0.6618,-0.7452,0.4882,1440.7158,631.8488)" x2="-323.75" x1="-323.08">
<stop stop-color="#E50012" offset="0"/>
<stop stop-color="#5B0000" offset="1"/>
</linearGradient>
<radialGradient id="SVGID_8819_" gradientUnits="userSpaceOnUse" cy="390.14" cx="-323.88" gradientTransform="matrix(0.4335,0.6618,-0.7452,0.4882,1440.7158,631.8488)" r="4.3367">
<stop stop-color="#E50012" offset="0"/>
<stop stop-color="#900000" offset="0.47"/>
<stop stop-color="#590000" offset="0.58"/>
<stop stop-color="#8E0000" offset="0.67"/>
<stop stop-color="#E50012" offset="1"/>
</radialGradient>
<radialGradient id="SVGID_8820_" gradientUnits="userSpaceOnUse" cy="389.29" cx="-324.58" gradientTransform="matrix(0.4335,0.6618,-0.7452,0.4882,1440.7158,631.8488)" r="2.921">
<stop stop-color="#F19773" offset="0"/>
<stop stop-color="#E50012" offset="0.52"/>
<stop stop-color="#7B0000" offset="1"/>
</radialGradient>
<radialGradient id="SVGID_8821_" gradientUnits="userSpaceOnUse" cy="389.14" cx="-324.64" gradientTransform="matrix(0.4335,0.6618,-0.7452,0.4882,1440.7158,631.8488)" r="1.5567">
<stop stop-color="#FFFFFF" offset="0"/>
<stop stop-color="#E50012" offset="1"/>
</radialGradient>
</defs>
<metadata>
<rdf:RDF>
<cc:Work rdf:about="">
<dc:format>image/svg+xml</dc:format>
<dc:type rdf:resource="http://purl.org/dc/dcmitype/StillImage"/>
<dc:title/>
</cc:Work>
</rdf:RDF>
</metadata>
<g transform="translate(408.1566,-184.90907)">
<g transform="translate(-1409.8966,-417.2099)">
<path d="m1012.9,628.83c-0.246-0.694-1.008-1.058-1.703-0.812-0.693,0.246-1.057,1.008-0.811,1.702,0.244,0.693,1.008,1.057,1.701,0.812,0.694-0.247,1.057-1.008,0.813-1.702zm-4.235-21.732c-1.08,0.382-1.646,1.568-1.264,2.649,0.385,1.081,1.568,1.646,2.65,1.263,1.08-0.382,1.646-1.568,1.262-2.648-0.38-1.081-1.566-1.647-2.648-1.264zm5.967,22.963c0.832-3.608-4.92-5.073-5.217-1.014,0,0-0.57-2.423,1.473-5.417,2.404-3.524,7.32-6.546,6.898-12.948s-5.668-8.659-8.648-8.158c-3.234,0.542-7.375,4.908-4.652,9.404,0,0-1.105-0.889-2.271,0.502,0,0,1.572-0.029,2.053,1.118,0.447,1.065,2.627,2.26,4.34,2.05-0.838,0.15-2.842,0.476-4.035,0.403-1.941-0.12-2.316,2.288-1.512,3.284,0.469,0.58,1.063,0.71,1.561,0.591-0.744,0.806-1.053,1.895-0.412,3.182,0.727,1.461,1.887,1.321,2.484,0.721-0.818,1.777-1.27,3.912-0.307,5.963,1.0345,2.2023,2.9822,3.2596,4.7391,3.2144,1.6177-0.0416,3.0735-1.0178,3.5059-2.8954zm-3.275-13.55c-0.574,1.043-1.5,2.663-2.066,3.355-0.385,0.472-1.395,1.64-2.221,3.164,0.02-0.212-0.023-0.429-0.158-0.627-0.795-1.187-1.533-0.398-1.533-0.398s0.557-1.515,1.381-1.844c0.724-0.29,3.192-1.489,4.597-3.65zm-5.641,0.705c1.209-0.428,3.119,0.515,4.92-1.102,0,0-1.482,1.881-3.527,2.379-0.541,0.131-1.084,0.35-1.564,0.641,0.039-0.096,0.064-0.196,0.066-0.298,0.047-1.146-1.217-0.888-1.217-0.888s0.252-0.353,1.322-0.732zm7.399,11.537c0.287,0.813-0.139,1.706-0.951,1.994s-1.705-0.138-1.994-0.951c-0.287-0.813,0.139-1.706,0.951-1.994,0.814-0.287,1.706,0.138,1.994,0.951zm-3.916,2.555c-4.758-4.716,1.828-11.642,2.914-13.043s4.588-6.821,2.406-10.642c-2.18-3.821-7.029-3.159-8.193,0.04-1.164,3.198,1.674,4.942,3.623,4.705,1.949-0.238,3.568-2.469,2.533-4.437s-3.381-1.891-3.381-1.891c1.213-0.618,3.486,0.235,4.342,2.265,0.939,2.228-0.756,5.841-4.785,5.309-4.027-0.532-5.805-7.357-0.936-9.345s8.021,2.13,8.684,4.531c0.945,3.433-0.174,6.425-3.463,10.64-2.932,3.756-4.688,6.329-4.609,8.146,0.078,1.816,1.322,4.05,3.648,3.603s1.525-3.025,1.525-3.025c1.324,3.634-2.695,4.743-4.308,3.144zm2.453-23.066c0.447,1.266-0.217,2.655-1.48,3.104-1.268,0.448-2.656-0.215-3.104-1.481-0.449-1.266,0.213-2.655,1.48-3.103,1.266-0.448,2.654,0.214,3.104,1.48z" fill="#333333"/>
<path d="m1012.4,628.49c-0.246-0.694-1.008-1.058-1.701-0.812s-1.057,1.007-0.813,1.702c0.246,0.693,1.008,1.057,1.701,0.812,0.696-0.247,1.059-1.008,0.813-1.702zm-4.233-21.733c-1.08,0.382-1.646,1.568-1.264,2.649,0.383,1.081,1.568,1.646,2.648,1.263,1.082-0.382,1.646-1.568,1.264-2.648s-1.568-1.647-2.648-1.264zm5.967,22.964c0.83-3.607-4.922-5.073-5.217-1.014,0,0-0.57-2.423,1.471-5.417,2.404-3.524,7.322-6.545,6.9-12.947-0.422-6.403-5.67-8.659-8.65-8.159-3.232,0.542-7.374,4.908-4.652,9.404,0,0-1.105-0.889-2.27,0.502,0,0,1.57-0.029,2.053,1.118,0.447,1.065,2.627,2.26,4.34,2.05-0.838,0.15-2.842,0.476-4.035,0.403-1.943-0.12-2.316,2.288-1.512,3.284,0.469,0.58,1.063,0.71,1.559,0.591-0.742,0.806-1.051,1.896-0.412,3.182,0.727,1.461,1.889,1.321,2.486,0.721-0.818,1.777-1.271,3.912-0.307,5.963,0.989,2.1065,2.8142,3.1654,4.5089,3.2141,1.7085,0.049,3.2843-0.92869,3.7371-2.8951zm-3.275-13.55c-0.576,1.042-1.502,2.663-2.066,3.354-0.387,0.472-1.395,1.64-2.223,3.164,0.021-0.212-0.023-0.429-0.156-0.627-0.797-1.187-1.533-0.398-1.533-0.398s0.555-1.515,1.381-1.844c0.722-0.289,3.191-1.488,4.597-3.649zm-5.641,0.705c1.209-0.429,3.119,0.514,4.918-1.102,0,0-1.48,1.88-3.525,2.379-0.543,0.131-1.084,0.349-1.566,0.64,0.039-0.096,0.064-0.196,0.068-0.298,0.047-1.146-1.217-0.887-1.217-0.887s0.252-0.353,1.322-0.732zm7.397,11.538c0.289,0.813-0.137,1.706-0.949,1.993-0.814,0.288-1.707-0.138-1.994-0.951s0.137-1.706,0.951-1.994c0.812-0.288,1.705,0.138,1.992,0.952zm-3.914,2.553c-4.758-4.716,1.828-11.642,2.912-13.043,1.086-1.4,4.59-6.821,2.408-10.642s-7.029-3.159-8.195,0.04c-1.164,3.199,1.676,4.942,3.625,4.705,1.949-0.238,3.568-2.469,2.533-4.437-1.037-1.968-3.381-1.891-3.381-1.891,1.213-0.618,3.486,0.236,4.342,2.265,0.939,2.228-0.756,5.841-4.785,5.309-4.029-0.531-5.805-7.357-0.936-9.345,4.867-1.988,8.02,2.13,8.682,4.531,0.947,3.433-0.172,6.425-3.461,10.64-2.932,3.756-4.688,6.329-4.609,8.146,0.078,1.816,1.32,4.05,3.646,3.602,2.328-0.447,1.527-3.025,1.527-3.025,1.324,3.635-2.695,4.744-4.308,3.145zm2.451-23.065c0.449,1.266-0.215,2.656-1.48,3.104s-2.654-0.215-3.104-1.481c-0.447-1.266,0.215-2.655,1.48-3.103,1.266-0.448,2.657,0.214,3.104,1.48z" fill="url(#SVGID_8817_)"/>
<path d="m1010.6,607.4c0.826,0.884,0.777,2.226-0.109,2.996-0.885,0.77-2.273,0.677-3.098-0.207-0.828-0.884-0.777-2.225,0.107-2.995,0.885-0.769,2.274-0.677,3.1,0.206z" fill-rule="evenodd" clip-rule="evenodd" fill="url(#SVGID_8818_)"/>
<path d="m1010.5,607.48c0.777,0.833,0.732,2.094-0.102,2.819s-2.141,0.639-2.918-0.193c-0.777-0.833-0.732-2.095,0.102-2.82,0.834-0.726,2.14-0.639,2.918,0.194z" fill-rule="evenodd" clip-rule="evenodd" fill="url(#SVGID_8819_)"/>
<path d="m1010.5,607.48c0.172,0.185,0.307,0.392,0.396,0.609-0.09,0.196-0.225,0.38-0.404,0.537-0.615,0.536-1.518,0.539-2.016,0.008-0.459-0.493-0.41-1.272,0.092-1.811,0.683-0.115,1.422,0.11,1.932,0.657z" fill-rule="evenodd" clip-rule="evenodd" fill="url(#SVGID_8820_)"/>
<path d="m1009.2,606.8c0.484,0.057,0.955,0.277,1.316,0.654-0.049,0.131-0.133,0.257-0.25,0.359-0.344,0.299-0.848,0.301-1.123,0.004-0.26-0.276-0.231-0.716,0.057-1.017z" fill-rule="evenodd" clip-rule="evenodd" fill="url(#SVGID_8821_)"/>
<path d="m1010,607.31c0.051,0.056,0.041,0.147-0.023,0.204-0.064,0.056-0.16,0.057-0.215,0.001-0.051-0.057-0.039-0.148,0.023-0.206,0.066-0.056,0.162-0.056,0.215,0.001z" fill-rule="evenodd" clip-rule="evenodd" fill="#ffffff"/>
<path d="m1009.2,607c0.039,0.041,0.033,0.107-0.016,0.147-0.047,0.042-0.117,0.042-0.154,0.001-0.039-0.042-0.031-0.107,0.016-0.149,0.049-0.04,0.117-0.039,0.154,0.001z" fill-rule="evenodd" clip-rule="evenodd" fill="#ffffff"/>
<path d="m1009.2,610.52c0.242,0.008,0.453-0.073,0.447-0.053-0.01,0.02-0.23,0.134-0.473,0.125-0.242-0.008-0.414-0.138-0.406-0.158,0.01-0.02,0.19,0.077,0.432,0.086z" fill-rule="evenodd" clip-rule="evenodd" fill="#ffffff"/>
<path d="m1009.1,607.1c-0.242-0.008-0.455,0.074-0.447,0.053,0.01-0.019,0.23-0.135,0.473-0.125,0.242,0.009,0.414,0.138,0.406,0.159-0.01,0.02-0.189-0.077-0.432-0.087z" fill-rule="evenodd" clip-rule="evenodd" fill="#ffffff"/>
<path d="m1007.2,608.84c0.084,0.622,0.611,1.062,0.551,1.085-0.059,0.022-0.582-0.426-0.666-1.048-0.082-0.623,0.305-1.184,0.365-1.207,0.061-0.023-0.332,0.547-0.25,1.17z" fill-rule="evenodd" clip-rule="evenodd" fill="#e50012"/>
<path d="m1010.8,608.76c-0.082-0.622-0.609-1.062-0.551-1.084,0.063-0.023,0.584,0.424,0.668,1.047,0.082,0.623-0.305,1.184-0.365,1.208-0.061,0.022,0.332-0.548,0.248-1.171z" fill-rule="evenodd" clip-rule="evenodd" fill="#e50012"/>
<path d="m1010.6,607.91c0.043,0.074,0.049,0.154,0.012,0.18-0.039,0.026-0.104-0.013-0.148-0.087-0.045-0.072-0.049-0.153-0.012-0.179s0.103,0.012,0.148,0.086z" fill-rule="evenodd" clip-rule="evenodd" fill="#ef8c66"/>
<path d="m1009.3,608.34c0.014-0.01,0.031-0.008,0.037,0.003,0.01,0.011,0,0.028-0.016,0.039-0.016,0.009-0.033,0.009-0.039-0.002,0-0.012,0-0.03,0.018-0.04z" fill-rule="evenodd" clip-rule="evenodd" fill="#ffffff"/>
<ellipse d="m 1009.468,608.146 c 0,0.0182 -0.01,0.033 -0.023,0.033 -0.013,0 -0.023,-0.0148 -0.023,-0.033 0,-0.0182 0.01,-0.033 0.023,-0.033 0.013,0 0.023,0.0148 0.023,0.033 z" fill-rule="evenodd" cx="1009.4" cy="608.15" rx="0.023" ry="0.033" transform="matrix(-0.5098,-0.8603,0.8603,-0.5098,1000.88,1786.5979)" clip-rule="evenodd" fill="#ffffff"/>
<path d="m1009.6,607.76c0.033-0.024,0.072-0.021,0.088,0.004,0.014,0.025,0,0.064-0.037,0.087-0.035,0.022-0.074,0.021-0.09-0.004-0.014-0.026,0-0.064,0.039-0.087z" fill-rule="evenodd" clip-rule="evenodd" fill="#ffffff"/>
</g>
</g>
</svg>
