<!-- Created with Inkscape (http://www.inkscape.org/) -->
<svg xmlns:rdf="http://www.w3.org/1999/02/22-rdf-syntax-ns#" xmlns="http://www.w3.org/2000/svg" version="1.1" xmlns:cc="http://creativecommons.org/ns#" xmlns:xlink="http://www.w3.org/1999/xlink" viewBox="0 0 11.174 14.3" xmlns:dc="http://purl.org/dc/elements/1.1/">
<defs>
<linearGradient id="linearGradient11284" y2="915.67" gradientUnits="userSpaceOnUse" y1="903.09" gradientTransform="translate(-790.04029,-241.3151)" x2="1153.6" x1="1140.1">
<stop stop-color="#e5e2df" offset="0"/>
<stop stop-color="#ded9d6" offset="0"/>
<stop stop-color="#cfccc9" offset="0.0381"/>
<stop stop-color="#a8a8a8" offset="0.1113"/>
<stop stop-color="#6a7072" offset="0.2112"/>
<stop stop-color="#465053" offset="0.264"/>
<stop stop-color="#878d8f" offset="0.3722"/>
<stop stop-color="#b7babb" offset="0.4638"/>
<stop stop-color="#d5d6d6" offset="0.5335"/>
<stop stop-color="#e0e0e0" offset="0.573"/>
<stop stop-color="#d6d7d8" offset="0.632"/>
<stop stop-color="#bcbfc2" offset="0.7314"/>
<stop stop-color="#92989e" offset="0.8582"/>
<stop stop-color="#8b9298" offset="0.8764"/>
<stop stop-color="#d1d3d4" offset="1"/>
<stop stop-color="#a7a9ac" offset="1"/>
</linearGradient>
</defs>
<metadata>
<rdf:RDF>
<cc:Work rdf:about="">
<dc:format>image/svg+xml</dc:format>
<dc:type rdf:resource="http://purl.org/dc/dcmitype/StillImage"/>
<dc:title/>
</cc:Work>
</rdf:RDF>
</metadata>
<g transform="translate(-348.69871,-659.4979)">
<path fill="url(#linearGradient11284)" d="m359.47,661.68-0.01-0.019-0.017,0.002s-0.067,0.01-0.187,0.02c-0.121,0.01-0.295,0.019-0.508,0.019-1.107,0.001-3.263-0.267-4.433-2.18l0.021-0.026h-0.088l0.015,0.022c-1.454,1.885-3.378,2.181-4.44,2.181-0.24,0-0.438-0.016-0.574-0.031-0.137-0.016-0.213-0.031-0.213-0.031l-0.018-0.003v0.021c0,0.001-0.315,1.217-0.315,2.921,0,2.84,0.88,7.042,5.563,9.218v-0.014,0.016-0.016,0.014c4.672-2.234,5.612-6.142,5.611-8.911,0-1.855-0.42-3.2-0.42-3.203z"/>
</g>
</svg>
